<?xml version="1.0" encoding="utf-8"?>
<!-- Generator: Adobe Illustrator 16.0.0, SVG Export Plug-In . SVG Version: 6.00 Build 0)  -->
<!DOCTYPE svg PUBLIC "-//W3C//DTD SVG 1.0//EN" "http://www.w3.org/TR/2001/REC-SVG-20010904/DTD/svg10.dtd">
<svg version="1.0" id="Layer_1" xmlns="http://www.w3.org/2000/svg" xmlns:xlink="http://www.w3.org/1999/xlink" x="0px" y="0px"
	 width="700px" height="573px" viewBox="0 0 700 573" enable-background="new 0 0 700 573" xml:space="preserve">
<title>6D715491-6814-4CAE-B4E2-847EDC90C945</title>
<desc>Created with sketchtool.</desc>
<g id="Images_x2F_img_x5F_hero_x5F_home">
	<g id="_x2D_g-Fondo">
		<g id="Ilustraciones" transform="translate(187.000000, 180.000000)">
			<g id="Group-2">
				<path id="Fill-4" fill="#67A9F3" fill-opacity="0.3" d="M206.279,4.775v81.539c-31.779,52.558-97.388,58.578-147.423,69.118
					c-13.366,2.824-25.629,5.967-35.843,10.399c-0.808,0.347-1.598,0.713-2.367,1.081H2.461v-11.48l8.916-23.646V34.178
					c14.068-9.197,39.349-18.409,84.64-23.277c0,0,16.552-4.205,32.215-8.813h70.06C201.255,2.088,203.984,3.083,206.279,4.775"/>
				<path id="Fill-30" fill="#67A9F3" d="M198.365,2.083h-0.077c8.021,0,14.525,7.293,14.525,16.287v113.415H11.374V18.37
					c0-8.994,6.491-16.287,14.51-16.287h154.486"/>
				<path id="Stroke-32" fill="#030448" d="M198.288,3.828c-2.336,0-2.336-3.49,0-3.49c1.066,0.022,1.829,0.795,1.829,1.745
					c0,0.964-0.785,1.745-1.752,1.745l-0.077-3.49c9.101,0.071,16.277,8.161,16.277,18.032v113.415c0,0.964-0.784,1.745-1.752,1.745
					H11.374c-0.967,0-1.752-0.781-1.752-1.745V18.37c0-9.916,7.228-18.032,16.262-18.032h154.486c0.968,0,1.752,0.781,1.752,1.745
					s-0.784,1.745-1.752,1.745H25.883c-6.999,0-12.758,6.466-12.758,14.542v111.669h197.936V18.37
					C211.062,10.297,205.291,3.828,198.288,3.828z"/>
				<path id="Stroke-34" fill="#030448" d="M203.899,153.679c0.968,0,1.752,0.781,1.752,1.745s-0.784,1.745-1.752,1.745H2.461
					c-1.223,0-2.07-1.218-1.64-2.358l8.912-23.64c0.257-0.681,0.91-1.132,1.64-1.132h201.44c0.729,0,1.384,0.451,1.64,1.132
					l8.912,23.64c0.341,0.902-0.118,1.908-1.024,2.247c-0.905,0.339-1.915-0.118-2.256-1.021l-8.485-22.508H12.587l-7.597,20.149
					H203.899z"/>
				<path id="Stroke-36" fill="#030448" d="M219.974,155.424c0-0.964,0.784-1.745,1.752-1.745s1.752,0.781,1.752,1.745v11.494
					c0,0.963-0.784,1.744-1.752,1.744H20.775c-0.968,0-1.752-0.781-1.752-1.744c0-0.964,0.784-1.745,1.752-1.745h199.199V155.424z"
					/>
				<path id="Stroke-38" fill="#3973E7" d="M79.503,90.824c0-3.634-2.958-6.58-6.607-6.58c-3.647,0-6.604,2.946-6.604,6.58
					c0,3.634,2.958,6.58,6.604,6.58C76.545,97.403,79.503,94.458,79.503,90.824z M83.007,90.824c0,5.561-4.527,10.07-10.111,10.07
					c-5.583,0-10.108-4.509-10.108-10.07c0-5.562,4.526-10.07,10.108-10.07C78.48,80.754,83.007,85.262,83.007,90.824z"/>
				<path id="Stroke-40" fill="#3973E7" d="M152.147,53.836c0-3.634-2.958-6.58-6.606-6.58c-3.646,0-6.605,2.947-6.605,6.58
					c0,3.633,2.958,6.579,6.605,6.579C149.19,60.415,152.147,57.47,152.147,53.836z M155.651,53.836
					c0,5.562-4.526,10.068-10.11,10.068c-5.582,0-10.109-4.508-10.109-10.068s4.527-10.07,10.109-10.07
					C151.125,43.767,155.651,48.275,155.651,53.836z"/>
				<path id="Stroke-42" fill="#3973E7" d="M80.042,86.175c-0.684,0.681-1.793,0.681-2.478,0c-0.685-0.682-0.685-1.787,0-2.468
					l23.255-23.162c0.684-0.682,1.793-0.682,2.478,0c0.685,0.681,0.685,1.786,0,2.467L80.042,86.175z"/>
				<path id="Stroke-44" fill="#3973E7" d="M100.82,63.013c-0.684-0.681-0.685-1.786,0-2.468c0.684-0.681,1.793-0.682,2.478,0
					l17.756,17.683c0.684,0.682,0.684,1.786,0,2.468s-1.793,0.682-2.478,0L100.82,63.013z"/>
				<path id="Stroke-46" fill="#3973E7" d="M121.052,80.695c-0.684,0.681-1.793,0.681-2.478,0c-0.684-0.681-0.684-1.786,0-2.467
					l19.877-19.796c0.685-0.682,1.794-0.682,2.478,0s0.684,1.786,0,2.468L121.052,80.695z"/>
				<path id="Stroke-48" fill="#030448" d="M0.71,155.424c0-0.964,0.785-1.745,1.752-1.745c0.968,0,1.752,0.781,1.752,1.745v11.494
					c0,0.963-0.784,1.744-1.752,1.744c-0.967,0-1.752-0.781-1.752-1.744V155.424z"/>
			</g>
			<g id="Group" transform="translate(258.000000, 13.000000)">
				<path id="Fill-1" fill="#67A9F3" fill-opacity="0.3" d="M93.111,14.095v108.016c-29.48,12.351-63.29,16.169-90.676,22.538
					c-0.088-0.557-0.14-1.151-0.14-1.744V16.852c11.275-2.826,24.995-5.268,41.646-7.065c0,0,13.439-3.419,27.002-7.362h10.49
					C87.875,2.425,93.111,7.641,93.111,14.095"/>
				<polygon id="Fill-14" fill="#67A9F3" points="2.299,36.271 2.299,130.549 93.109,130.549 93.109,18.036 2.299,18.036 				"/>
				<path id="Stroke-15" fill="#030448" d="M4.044,18.036c0,0.963-0.781,1.745-1.745,1.745s-1.746-0.781-1.746-1.745v-5.352
					c0-6.641,5.381-12.009,12.03-12.009h70.242c6.649,0,12.029,5.368,12.029,12.009v131.634c0,6.641-5.381,12.008-12.029,12.008
					H30.828c-0.964,0-1.745-0.781-1.745-1.745c0-0.963,0.781-1.744,1.745-1.744h51.997c4.723,0,8.539-3.807,8.539-8.519V12.684
					c0-4.713-3.816-8.52-8.539-8.52H12.583c-4.723,0-8.539,3.807-8.539,8.52V18.036z"/>
				<path id="Stroke-17" fill="#030448" d="M0.553,36.271c0-0.963,0.782-1.745,1.746-1.745s1.745,0.781,1.745,1.745v108.048
					c0,4.711,3.816,8.518,8.539,8.518c0.964,0,1.745,0.781,1.745,1.744c0,0.964-0.781,1.745-1.745,1.745
					c-6.649,0-12.03-5.367-12.03-12.007V36.271z"/>
				<polyline id="Fill-19" fill="#67A9F3" points="2.299,18.036 93.109,18.036 93.109,130.549 				"/>
				<path id="Stroke-21" fill="#030448" d="M91.364,19.78H2.299c-0.964,0-1.746-0.781-1.746-1.745s0.782-1.745,1.746-1.745h90.811
					c0.964,0,1.745,0.781,1.745,1.745v112.513c0,0.964-0.781,1.744-1.745,1.744s-1.745-0.78-1.745-1.744V19.78z"/>
				<polyline id="Fill-23" fill="#67A9F3" points="2.299,36.271 2.299,130.549 74.864,130.549 				"/>
				<path id="Stroke-25" fill="#030448" d="M4.044,128.805h70.82c0.964,0,1.745,0.781,1.745,1.744c0,0.964-0.781,1.744-1.745,1.744
					H2.299c-0.964,0-1.746-0.78-1.746-1.744V36.271c0-0.963,0.782-1.745,1.746-1.745s1.745,0.781,1.745,1.745V128.805z"/>
				<path id="Stroke-27" fill="none" stroke="#67A9F3" stroke-width="2" stroke-linecap="round" stroke-linejoin="round" d="
					M53.399,142.661c0,3.144-2.55,5.692-5.695,5.692c-3.144,0-5.694-2.549-5.694-5.692s2.551-5.692,5.694-5.692
					C50.85,136.969,53.399,139.518,53.399,142.661z"/>
				<path id="_x3C__x2F__x3E_" fill="#3973E7" d="M39.609,74.528l-18.023-7.651v-3.12l18.023-7.651v3.324l-14.307,5.887
					l14.307,5.887V74.528z M52.282,51.52l-7.879,27.224h-2.694l7.879-27.224H52.282z M72.405,66.877l-18.023,7.651v-3.324
					l14.307-5.887L54.382,59.43v-3.324l18.023,7.651V66.877z"/>
			</g>
		</g>
	</g>
</g>
</svg>
